<svg xmlns="http://www.w3.org/2000/svg" viewBox="0 0 120 120" fill="none">
  <!-- Pot -->
  <path d="M38 90 L42 105 L78 105 L82 90 Z" fill="#6b7280" opacity="0.8"/>
  <rect x="35" y="85" width="50" height="7" rx="2" fill="#9ca3af"/>
  <!-- Trunk -->
  <path d="M58 85 Q55 70 50 60 Q48 55 52 50" stroke="#a78b6e" stroke-width="4" stroke-linecap="round" fill="none"/>
  <path d="M62 85 Q65 72 68 65 Q70 60 66 55" stroke="#a78b6e" stroke-width="3" stroke-linecap="round" fill="none"/>
  <!-- Left branch -->
  <path d="M50 60 Q42 52 38 48" stroke="#a78b6e" stroke-width="2.5" stroke-linecap="round" fill="none"/>
  <!-- Right branch -->
  <path d="M66 55 Q72 48 76 45" stroke="#a78b6e" stroke-width="2" stroke-linecap="round" fill="none"/>
  <!-- Foliage clusters -->
  <circle cx="52" cy="42" r="14" fill="#10b981" opacity="0.9"/>
  <circle cx="38" cy="38" r="10" fill="#10b981" opacity="0.8"/>
  <circle cx="66" cy="38" r="12" fill="#10b981" opacity="0.85"/>
  <circle cx="76" cy="40" r="8" fill="#10b981" opacity="0.75"/>
  <circle cx="48" cy="30" r="10" fill="#34d399" opacity="0.7"/>
  <circle cx="60" cy="28" r="11" fill="#34d399" opacity="0.65"/>
  <circle cx="55" cy="22" r="8" fill="#6ee7b7" opacity="0.5"/>
</svg>
